# Made using Asset Forge (www.assetforge.io) version 1.3 

mtllib miningArm.mtl 

v 0.06906766 0.1201364 -0.03479278
v 0.04983922 0.08706351 0.01179296
v -0.06906771 0.1201364 -0.03479278
v -2.175572E-08 0.0870635 0.01179296
v -0.04983927 0.08706349 0.01179296
v 0.06906769 -0.1174564 -0.03479278
v 0.06906768 -0.1174564 0.03473818
v -0.06906769 -0.1174564 -0.03479278
v -0.06906769 -0.1174564 0.03473818
v -0.06906772 0.1201364 0.03473818
v -0.1381354 0.001339987 0.03473818
v -0.1381354 0.001339987 -0.03479278
v 0.04983924 -0.0843835 0.01179296
v -6.767349E-09 -0.0843835 0.01179296
v -0.04983925 -0.0843835 0.01179296
v 0.09967848 0.001340017 0.01179296
v 0.1381354 0.001340017 -0.03479278
v 0.1381354 0.001340017 0.03473818
v 0.06906766 0.1201364 0.03473818
v -0.09967851 0.001339987 0.01179296
v 0.1155 -0.19732 -0.1460424
v -0.1155 -0.19732 -0.1460424
v 0.0924 -0.157588 0.03473818
v -0.0924 -0.157588 0.03473818
v 0.1848 0.001340017 0.03473821
v 0.231 0.001340017 -0.1460424
v -0.1848 0.001339987 0.03473815
v -0.231 0.001339987 -0.1460424
v 0.09239997 0.160268 0.03473818
v 0.1155 0.2 -0.1460424
v -0.1155 0.2 -0.1460424
v -0.09240003 0.160268 0.03473818
v 0.08778005 -0.1496416 -0.6003116
v -0.08777995 -0.1496416 -0.6003116
v -0.0489812 0.08558773 -0.7347382
v -0.09796243 0.001339987 -0.7347382
v 0.04898129 0.08558774 -0.7347382
v 0.09796254 0.001340017 -0.7347382
v 0.0489813 -0.08290775 -0.7347382
v -0.04898118 -0.08290775 -0.7347382
v 0.08778002 0.1523216 -0.6003116
v 0.17556 0.001340017 -0.6003115
v -0.08777998 0.1523216 -0.6003116
v -0.17556 0.001339987 -0.6003116
vn -7.943203E-08 0.4620838 0.4465127
vn -7.943203E-08 0.4620838 0.4465127
vn -5.245367E-08 0.6 -4.585645E-15
vn 0.5187043 -0.3015723 4.534657E-08
vn 1.361272E-09 -0.4620838 0.4465127
vn 1.361276E-09 -0.4620838 0.4465127
vn 0.3986233 0.2317579 0.4478962
vn 0.3986233 0.2317578 0.4478963
vn -0.5187043 0.3015723 -4.534657E-08
vn -0.5187043 -0.3015724 -4.534657E-08
vn -0.3986235 0.2317578 0.4478962
vn -0.3986235 0.2317578 0.4478962
vn 0.3986234 -0.2317578 0.4478962
vn 0.3986234 -0.2317578 0.4478963
vn 0.5187043 0.3015724 4.534657E-08
vn 5.245367E-08 -0.6 4.585645E-15
vn -0.3986234 -0.2317579 0.4478962
vn -0.3986234 -0.2317578 0.4478962
vn 3.561041E-08 -0.5811983 0.1738627
vn 0.5022874 -0.2920275 0.1747174
vn -0.5022874 -0.2920276 0.1747173
vn 0.5022873 0.2920276 0.1747174
vn -6.600953E-08 0.5811983 0.1738628
vn -0.5022874 0.2920275 0.1747173
vn 5.950262E-08 -0.5955518 -0.08507881
vn -6.119594E-08 0 0.7
vn 6.119594E-08 0 -0.7
vn 0.4482653 0.2606194 -0.3522015
vn 0.4482653 0.2606194 -0.3522015
vn 0.514819 -0.2993133 -0.08551805
vn 0.514819 -0.2993133 -0.08551804
vn -1.472004E-08 0.5192052 -0.3508275
vn 7.606067E-08 -0.5192052 -0.3508275
vn -0.5148189 0.2993133 -0.08551814
vn -0.5148189 0.2993133 -0.08551813
vn -0.4482652 -0.2606194 -0.3522016
vn -0.4482652 -0.2606194 -0.3522016
vn -0.4482653 0.2606193 -0.3522016
vn -0.4482653 0.2606193 -0.3522016
vn -4.462697E-08 0.5955518 -0.08507882
vn -4.462697E-08 0.5955518 -0.08507881
vn 0.5148189 0.2993134 -0.08551805
vn 0.5148189 0.2993134 -0.08551804
vn 0.4482653 -0.2606193 -0.3522015
vn 0.4482653 -0.2606193 -0.3522015
vn -0.5148188 -0.2993134 -0.08551814
vn -0.5148188 -0.2993134 -0.08551813
vt -0.06906767 -0.03479278
vt -0.04983922 0.01179296
vt 0.06906771 -0.0347928
vt 2.175572E-08 0.01179295
vt 0.04983927 0.01179295
vt -0.06906769 -0.03479278
vt -0.06906769 0.0347382
vt 0.06906769 -0.0347928
vt 0.06906769 0.03473819
vt -0.03473819 0.1201364
vt 0.0347928 0.1201364
vt -0.03473818 0.001339991
vt 0.0347928 0.001339991
vt -0.06906769 0.03479278
vt 0.06906769 0.0347928
vt -0.04983924 -0.01179296
vt 6.76735E-09 -0.01179295
vt 0.04983925 -0.01179295
vt -0.01179296 0.0870635
vt 0.03479278 0.1201364
vt -0.01179296 0.001340012
vt 0.03479278 0.001340015
vt 0.03473821 0.001340015
vt 0.0347382 -0.1174564
vt -0.03479278 0.001340015
vt -0.03479278 -0.1174564
vt 0.0347382 0.1201364
vt -0.03479278 0.1201364
vt 0.01179295 0.08706349
vt 0.01179294 0.001339994
vt -0.0347928 0.1201364
vt -0.0347928 0.001339991
vt -0.01179296 -0.08438349
vt 0.03479278 -0.1174564
vt -0.03473819 -0.1174564
vt 0.0347928 -0.1174564
vt -0.06906766 -0.0347382
vt -0.06906767 0.03479278
vt 0.06906772 -0.03473819
vt 0.06906771 0.0347928
vt 0.01179295 -0.0843835
vt -0.0347928 -0.1174564
vt -0.1155 0.1460424
vt 0.1155 0.1460424
vt -0.0924 -0.0347382
vt 0.09240001 -0.03473819
vt -0.03473821 0.001340019
vt 0.1460424 0.001340023
vt -0.0347382 -0.157588
vt 0.1460424 -0.19732
vt 0.03473818 0.001339987
vt 0.03473819 -0.157588
vt -0.1460424 0.001339983
vt -0.1460424 -0.19732
vt -0.0347382 0.160268
vt 0.1460424 0.2
vt -0.1155 -0.1460424
vt -0.09239997 0.0347382
vt 0.1155 -0.1460424
vt 0.09240004 0.03473819
vt 0.03473819 0.160268
vt -0.1460424 0.2
vt -0.08778005 0.6003116
vt 0.08777995 0.6003116
vt 0.09239997 0.160268
vt -0.06906772 0.1201364
vt -0.09240004 0.160268
vt -0.1848 0.001339987
vt -0.1381354 0.001339991
vt -0.09240001 -0.157588
vt -0.06906769 -0.1174564
vt 0.06906769 -0.1174564
vt 0.1848 0.001340019
vt 0.06906766 0.1201364
vt 0.1381354 0.001340015
vt 0.0924 -0.157588
vt -0.04983927 0.08706349
vt -2.175572E-08 0.0870635
vt -0.0996785 0.001339994
vt 0.04983922 0.0870635
vt 0.09967848 0.001340012
vt -0.04983925 -0.0843835
vt 0.04983924 -0.08438349
vt -6.76735E-09 -0.08438349
vt 0.0489812 0.08558773
vt 0.09796243 0.001339994
vt -0.04898129 0.08558774
vt -0.09796254 0.001340011
vt -0.0489813 -0.08290774
vt 0.04898118 -0.08290774
vt 0.6003116 0.1523216
vt 0.7347382 0.08558774
vt 0.6003116 0.001340018
vt 0.7347382 0.001340011
vt 0.6003116 -0.1496416
vt -0.08778002 -0.6003116
vt 0.08777997 -0.6003116
vt -0.04898129 -0.7347382
vt 0.0489812 -0.7347382
vt -0.0489813 0.7347382
vt 0.04898118 0.7347382
vt -0.6003116 0.1523216
vt -0.6003116 0.001339988
vt -0.6003116 -0.1496416
vt -0.7347382 0.001339994
vt -0.7347382 -0.08290774
vt -0.7347382 0.08558773
vt 0.7347382 -0.08290774

usemtl black (Instance) (Instance)
usemap black (Instance) (Instance)
f 3/3/1 2/2/1 1/1/1
f 2/2/1 3/3/1 4/4/2
f 4/4/2 3/3/1 5/5/2
f 8/8/3 7/7/3 6/6/3
f 7/7/3 8/8/3 9/9/3
f 11/12/4 3/11/4 10/10/4
f 3/11/4 11/12/4 12/13/4
f 13/16/5 8/15/5 6/14/5
f 8/15/5 13/16/5 14/17/6
f 8/15/5 14/17/6 15/18/6
f 16/21/8 1/20/8 2/19/7
f 1/20/8 16/21/8 17/22/8
f 17/25/9 7/24/9 18/23/9
f 7/24/9 17/25/9 6/26/9
f 1/28/10 18/23/10 19/27/10
f 18/23/10 1/28/10 17/25/10
f 3/31/12 20/30/12 5/29/11
f 20/30/12 3/31/12 12/32/12
f 13/33/14 17/22/14 16/21/13
f 17/22/14 13/33/14 6/34/14
f 9/35/15 12/13/15 11/12/15
f 12/13/15 9/35/15 8/36/15
f 10/39/16 1/38/16 19/37/16
f 1/38/16 10/39/16 3/40/16
f 12/32/18 15/41/18 20/30/17
f 15/41/18 12/32/18 8/42/18

usemtl blueSteel (Instance)
usemap blueSteel (Instance)
f 23/45/19 22/44/19 21/43/19
f 22/44/19 23/45/19 24/46/19
f 23/49/20 26/48/20 25/47/20
f 26/48/20 23/49/20 21/50/20
f 28/53/21 24/52/21 27/51/21
f 24/52/21 28/53/21 22/54/21
f 25/47/22 30/56/22 29/55/22
f 30/56/22 25/47/22 26/48/22
f 31/59/23 29/58/23 30/57/23
f 29/58/23 31/59/23 32/60/23
f 31/62/24 27/51/24 32/61/24
f 27/51/24 31/62/24 28/53/24

usemtl _defaultMat (Instance) (Instance)
usemap _defaultMat (Instance) (Instance)
f 22/44/25 33/63/25 21/43/25
f 33/63/25 22/44/25 34/64/25
f 32/67/26 10/66/26 29/65/26
f 10/66/26 32/67/26 27/68/26
f 10/66/26 27/68/26 11/69/26
f 9/71/26 27/68/26 24/70/26
f 11/69/26 27/68/26 9/71/26
f 9/71/26 24/70/26 7/72/26
f 29/65/26 19/74/26 25/73/26
f 19/74/26 29/65/26 10/66/26
f 25/73/26 19/74/26 18/75/26
f 25/73/26 18/75/26 23/76/26
f 23/76/26 18/75/26 7/72/26
f 23/76/26 7/72/26 24/70/26
f 20/79/26 4/78/26 5/77/26
f 4/78/26 20/79/26 2/80/26
f 2/80/26 20/79/26 16/81/26
f 16/81/26 20/79/26 15/82/26
f 16/81/26 15/82/26 13/83/26
f 13/83/16 15/82/16 14/84/16
f 37/87/27 36/86/27 35/85/27
f 36/86/27 37/87/27 38/88/27
f 36/86/27 38/88/27 39/89/27
f 36/86/27 39/89/27 40/90/27
f 42/93/29 37/92/29 41/91/28
f 37/92/29 42/93/29 38/94/29
f 21/50/30 42/93/30 26/48/30
f 42/93/30 21/50/30 33/95/31
f 37/98/32 43/97/32 41/96/32
f 43/97/32 37/98/32 35/99/32
f 34/64/33 39/100/33 33/63/33
f 39/100/33 34/64/33 40/101/33
f 43/102/34 28/53/34 31/62/34
f 28/53/34 43/102/34 44/103/35
f 36/105/37 34/104/37 44/103/36
f 34/104/37 36/105/37 40/106/37
f 35/107/39 44/103/39 43/102/38
f 44/103/39 35/107/39 36/105/39
f 41/96/40 31/59/40 30/57/40
f 31/59/40 41/96/40 43/97/41
f 26/48/42 41/91/42 30/56/42
f 41/91/42 26/48/42 42/93/43
f 33/95/45 38/94/45 42/93/44
f 38/94/45 33/95/45 39/108/45
f 44/103/46 22/54/46 28/53/46
f 22/54/46 44/103/46 34/104/47
